<svg xmlns="http://www.w3.org/2000/svg" width="1200" height="800" viewBox="0 0 1200 800"><rect width="100%" height="100%" fill="rgb(245,245,245)" /><line x1="50" y1="50" x2="50" y2="750" stroke="rgb(51,51,51)" stroke-width="2" /><line x1="50" y1="750" x2="1150" y2="750" stroke="rgb(51,51,51)" stroke-width="2" /><line x1="50" y1="680.00" x2="1150" y2="680.00" stroke="rgb(204,204,204)" stroke-width="1.0" opacity="0.7" /><line x1="50" y1="610.00" x2="1150" y2="610.00" stroke="rgb(204,204,204)" stroke-width="1.0" opacity="0.7" /><line x1="50" y1="540.00" x2="1150" y2="540.00" stroke="rgb(204,204,204)" stroke-width="1.0" opacity="0.7" /><line x1="50" y1="470.00" x2="1150" y2="470.00" stroke="rgb(204,204,204)" stroke-width="1.0" opacity="0.7" /><line x1="50" y1="400.00" x2="1150" y2="400.00" stroke="rgb(204,204,204)" stroke-width="1.0" opacity="0.7" /><line x1="50" y1="330.00" x2="1150" y2="330.00" stroke="rgb(204,204,204)" stroke-width="1.0" opacity="0.7" /><line x1="50" y1="260.00" x2="1150" y2="260.00" stroke="rgb(204,204,204)" stroke-width="1.0" opacity="0.7" /><line x1="50" y1="190.00" x2="1150" y2="190.00" stroke="rgb(204,204,204)" stroke-width="1.0" opacity="0.7" /><line x1="50" y1="120.00" x2="1150" y2="120.00" stroke="rgb(204,204,204)" stroke-width="1.0" opacity="0.7" /><line x1="160.00" y1="50" x2="160.00" y2="750" stroke="rgb(204,204,204)" stroke-width="1.0" opacity="0.7" /><line x1="270.00" y1="50" x2="270.00" y2="750" stroke="rgb(204,204,204)" stroke-width="1.0" opacity="0.7" /><line x1="380.00" y1="50" x2="380.00" y2="750" stroke="rgb(204,204,204)" stroke-width="1.0" opacity="0.7" /><line x1="490.00" y1="50" x2="490.00" y2="750" stroke="rgb(204,204,204)" stroke-width="1.0" opacity="0.7" /><line x1="600.00" y1="50" x2="600.00" y2="750" stroke="rgb(204,204,204)" stroke-width="1.0" opacity="0.7" /><line x1="710.00" y1="50" x2="710.00" y2="750" stroke="rgb(204,204,204)" stroke-width="1.0" opacity="0.7" /><line x1="820.00" y1="50" x2="820.00" y2="750" stroke="rgb(204,204,204)" stroke-width="1.0" opacity="0.7" /><line x1="930.00" y1="50" x2="930.00" y2="750" stroke="rgb(204,204,204)" stroke-width="1.0" opacity="0.7" /><line x1="1040.00" y1="50" x2="1040.00" y2="750" stroke="rgb(204,204,204)" stroke-width="1.0" opacity="0.7" /><path d="M 50,330 L 270,225 L 490,277.5 L 710,120 L 930,172.5 L 1150,67.5" fill="none" stroke="rgb(0,102,204)" stroke-width="2" /><path d="M 50,470 L 270,417.5 L 490,435 L 710,365 L 930,382.5 L 1150,330" fill="none" stroke="rgb(255,102,0)" stroke-width="2" /><path d="M 50,610 L 270,557.5 L 490,592.5 L 710,505 L 930,540 L 1150,487.5" fill="none" stroke="rgb(0,170,68)" stroke-width="2" /><text x="600" y="25" font-size="18" font-weight="bold" fill="#333" text-anchor="middle">Company Financial Performance</text><text x="600" y="790" font-size="14" fill="#666" text-anchor="middle">Quarter</text><text x="15" y="400" font-size="14" fill="#666" text-anchor="middle" transform="rotate(-90 15 400)">Amount ($1000s)</text><rect x="1050.00" y="360.00" width="140" height="80" fill="rgb(255,255,255)" stroke="rgb(204,204,204)" stroke-width="1" /><rect x="1060.00" y="374.00" width="12" height="12" fill="rgb(0,102,204)" /><text x="1080.00" y="384.00" font-size="12" fill="rgb(51,51,51)" text-anchor="start">Revenue</text><rect x="1060.00" y="394.00" width="12" height="12" fill="rgb(255,102,0)" /><text x="1080.00" y="404.00" font-size="12" fill="rgb(51,51,51)" text-anchor="start">Expenses</text><rect x="1060.00" y="414.00" width="12" height="12" fill="rgb(0,170,68)" /><text x="1080.00" y="424.00" font-size="12" fill="rgb(51,51,51)" text-anchor="start">Profit</text></svg>