<svg xmlns="http://www.w3.org/2000/svg" width="1200" height="800" viewBox="0 0 1200 800"><rect width="100%" height="100%" fill="rgb(255,255,255)" /><line x1="50" y1="50" x2="50" y2="750" stroke="rgb(51,51,51)" stroke-width="2" /><line x1="50" y1="750" x2="1150" y2="750" stroke="rgb(51,51,51)" stroke-width="2" /><line x1="50" y1="656.67" x2="1150" y2="656.67" stroke="rgb(224,224,224)" stroke-width="1.0" opacity="0.7" /><line x1="50" y1="552.96" x2="1150" y2="552.96" stroke="rgb(224,224,224)" stroke-width="1.0" opacity="0.7" /><line x1="50" y1="449.26" x2="1150" y2="449.26" stroke="rgb(224,224,224)" stroke-width="1.0" opacity="0.7" /><line x1="50" y1="345.56" x2="1150" y2="345.56" stroke="rgb(224,224,224)" stroke-width="1.0" opacity="0.7" /><line x1="50" y1="241.85" x2="1150" y2="241.85" stroke="rgb(224,224,224)" stroke-width="1.0" opacity="0.7" /><line x1="50" y1="138.15" x2="1150" y2="138.15" stroke="rgb(224,224,224)" stroke-width="1.0" opacity="0.7" /><line x1="123.33" y1="50" x2="123.33" y2="750" stroke="rgb(224,224,224)" stroke-width="1.0" opacity="0.7" /><line x1="270.00" y1="50" x2="270.00" y2="750" stroke="rgb(224,224,224)" stroke-width="1.0" opacity="0.7" /><line x1="416.67" y1="50" x2="416.67" y2="750" stroke="rgb(224,224,224)" stroke-width="1.0" opacity="0.7" /><line x1="563.33" y1="50" x2="563.33" y2="750" stroke="rgb(224,224,224)" stroke-width="1.0" opacity="0.7" /><line x1="710.00" y1="50" x2="710.00" y2="750" stroke="rgb(224,224,224)" stroke-width="1.0" opacity="0.7" /><line x1="856.67" y1="50" x2="856.67" y2="750" stroke="rgb(224,224,224)" stroke-width="1.0" opacity="0.7" /><line x1="1003.33" y1="50" x2="1003.33" y2="750" stroke="rgb(224,224,224)" stroke-width="1.0" opacity="0.7" /><rect x="67.187500" y="750.000000" width="34.375000" height="0.000000" fill="rgb(52,152,219)" /><rect x="135.937500" y="703.333333" width="34.375000" height="46.666667" fill="rgb(52,152,219)" /><rect x="204.687500" y="604.814815" width="34.375000" height="145.185185" fill="rgb(52,152,219)" /><rect x="273.437500" y="558.148148" width="34.375000" height="191.851852" fill="rgb(52,152,219)" /><rect x="342.187500" y="470.000000" width="34.375000" height="280.000000" fill="rgb(52,152,219)" /><rect x="410.937500" y="210.740741" width="34.375000" height="539.259259" fill="rgb(52,152,219)" /><rect x="479.687500" y="231.481481" width="34.375000" height="518.518519" fill="rgb(52,152,219)" /><rect x="548.437500" y="75.925926" width="34.375000" height="674.074074" fill="rgb(52,152,219)" /><rect x="617.187500" y="50.000000" width="34.375000" height="700.000000" fill="rgb(52,152,219)" /><rect x="685.937500" y="158.888889" width="34.375000" height="591.111111" fill="rgb(52,152,219)" /><rect x="754.687500" y="215.925926" width="34.375000" height="534.074074" fill="rgb(52,152,219)" /><rect x="823.437500" y="412.962963" width="34.375000" height="337.037037" fill="rgb(52,152,219)" /><rect x="892.187500" y="552.962963" width="34.375000" height="197.037037" fill="rgb(52,152,219)" /><rect x="960.937500" y="599.629630" width="34.375000" height="150.370370" fill="rgb(52,152,219)" /><rect x="1029.687500" y="667.037037" width="34.375000" height="82.962963" fill="rgb(52,152,219)" /><rect x="1098.437500" y="718.888889" width="34.375000" height="31.111111" fill="rgb(52,152,219)" /><g id="statistical-overlays"><line x1="80" y1="715.26" x2="1120" y2="715.26" stroke="rgb(231,76,60)" stroke-width="2" stroke-dasharray="5,5" /><text x="1115" y="710.26" font-size="12" fill="rgb(231,76,60)" text-anchor="end">min=3.00</text><line x1="80" y1="644.15" x2="1120" y2="644.15" stroke="rgb(231,76,60)" stroke-width="2" stroke-dasharray="5,5" /><text x="1115" y="639.15" font-size="12" fill="rgb(231,76,60)" text-anchor="end">max=18.00</text><line x1="80" y1="678.95" x2="1120" y2="678.95" stroke="rgb(231,76,60)" stroke-width="2" /><text x="1115" y="673.95" font-size="12" fill="rgb(231,76,60)" text-anchor="end">avg=10.66</text><line x1="80" y1="715.26" x2="1120" y2="715.26" stroke="rgb(46,204,113)" stroke-width="2" stroke-dasharray="5,5" /><text x="1115" y="710.26" font-size="12" fill="rgb(46,204,113)" text-anchor="end">min=3.00</text><line x1="80" y1="644.15" x2="1120" y2="644.15" stroke="rgb(46,204,113)" stroke-width="2" stroke-dasharray="5,5" /><text x="1115" y="639.15" font-size="12" fill="rgb(46,204,113)" text-anchor="end">max=18.00</text><line x1="80" y1="679.70" x2="1120" y2="679.70" stroke="rgb(46,204,113)" stroke-width="2" /><text x="1115" y="674.70" font-size="12" fill="rgb(46,204,113)" text-anchor="end">avg=10.50</text></g><text x="600" y="25" font-size="18" font-weight="bold" fill="#333" text-anchor="middle">3d6 Dice Roll Statistics (1000 rolls)</text><text x="600" y="790" font-size="14" fill="#666" text-anchor="middle">Roll Value</text><text x="15" y="400" font-size="14" fill="#666" text-anchor="middle" transform="rotate(-90 15 400)">Frequency</text></svg>