<svg xmlns="http://www.w3.org/2000/svg" width="1200" height="800" viewBox="0 0 1200 800"><rect width="100%" height="100%" fill="rgb(255,255,255)" /><line x1="50" y1="50" x2="50" y2="750" stroke="rgb(51,51,51)" stroke-width="2" /><line x1="50" y1="750" x2="1150" y2="750" stroke="rgb(51,51,51)" stroke-width="2" /><line x1="50" y1="671.05" x2="1150" y2="671.05" stroke="rgb(224,224,224)" stroke-width="1.0" opacity="0.7" /><line x1="50" y1="565.79" x2="1150" y2="565.79" stroke="rgb(224,224,224)" stroke-width="1.0" opacity="0.7" /><line x1="50" y1="460.53" x2="1150" y2="460.53" stroke="rgb(224,224,224)" stroke-width="1.0" opacity="0.7" /><line x1="50" y1="355.26" x2="1150" y2="355.26" stroke="rgb(224,224,224)" stroke-width="1.0" opacity="0.7" /><line x1="50" y1="250.00" x2="1150" y2="250.00" stroke="rgb(224,224,224)" stroke-width="1.0" opacity="0.7" /><line x1="50" y1="144.74" x2="1150" y2="144.74" stroke="rgb(224,224,224)" stroke-width="1.0" opacity="0.7" /><line x1="123.33" y1="50" x2="123.33" y2="750" stroke="rgb(224,224,224)" stroke-width="1.0" opacity="0.7" /><line x1="270.00" y1="50" x2="270.00" y2="750" stroke="rgb(224,224,224)" stroke-width="1.0" opacity="0.7" /><line x1="416.67" y1="50" x2="416.67" y2="750" stroke="rgb(224,224,224)" stroke-width="1.0" opacity="0.7" /><line x1="563.33" y1="50" x2="563.33" y2="750" stroke="rgb(224,224,224)" stroke-width="1.0" opacity="0.7" /><line x1="710.00" y1="50" x2="710.00" y2="750" stroke="rgb(224,224,224)" stroke-width="1.0" opacity="0.7" /><line x1="856.67" y1="50" x2="856.67" y2="750" stroke="rgb(224,224,224)" stroke-width="1.0" opacity="0.7" /><line x1="1003.33" y1="50" x2="1003.33" y2="750" stroke="rgb(224,224,224)" stroke-width="1.0" opacity="0.7" /><rect x="67.187500" y="750.000000" width="34.375000" height="0.000000" fill="rgb(52,152,219)" /><rect x="135.937500" y="718.421053" width="34.375000" height="31.578947" fill="rgb(52,152,219)" /><rect x="204.687500" y="644.736842" width="34.375000" height="105.263158" fill="rgb(52,152,219)" /><rect x="273.437500" y="550.000000" width="34.375000" height="200.000000" fill="rgb(52,152,219)" /><rect x="342.187500" y="455.263158" width="34.375000" height="294.736842" fill="rgb(52,152,219)" /><rect x="410.937500" y="234.210526" width="34.375000" height="515.789474" fill="rgb(52,152,219)" /><rect x="479.687500" y="171.052632" width="34.375000" height="578.947368" fill="rgb(52,152,219)" /><rect x="548.437500" y="50.000000" width="34.375000" height="700.000000" fill="rgb(52,152,219)" /><rect x="617.187500" y="92.105263" width="34.375000" height="657.894737" fill="rgb(52,152,219)" /><rect x="685.937500" y="134.210526" width="34.375000" height="615.789474" fill="rgb(52,152,219)" /><rect x="754.687500" y="323.684211" width="34.375000" height="426.315789" fill="rgb(52,152,219)" /><rect x="823.437500" y="407.894737" width="34.375000" height="342.105263" fill="rgb(52,152,219)" /><rect x="892.187500" y="534.210526" width="34.375000" height="215.789474" fill="rgb(52,152,219)" /><rect x="960.937500" y="618.421053" width="34.375000" height="131.578947" fill="rgb(52,152,219)" /><rect x="1029.687500" y="728.947368" width="34.375000" height="21.052632" fill="rgb(52,152,219)" /><rect x="1098.437500" y="744.736842" width="34.375000" height="5.263158" fill="rgb(52,152,219)" /><g id="statistical-overlays"><line x1="80" y1="729.62" x2="1120" y2="729.62" stroke="rgb(231,76,60)" stroke-width="2" stroke-dasharray="5,5" /><text x="1115" y="724.62" font-size="12" fill="rgb(231,76,60)" text-anchor="end">min=3.00</text><line x1="80" y1="657.44" x2="1120" y2="657.44" stroke="rgb(231,76,60)" stroke-width="2" stroke-dasharray="5,5" /><text x="1115" y="652.44" font-size="12" fill="rgb(231,76,60)" text-anchor="end">max=18.00</text><line x1="80" y1="693.38" x2="1120" y2="693.38" stroke="rgb(231,76,60)" stroke-width="2" /><text x="1115" y="688.38" font-size="12" fill="rgb(231,76,60)" text-anchor="end">avg=10.53</text><line x1="80" y1="729.62" x2="1120" y2="729.62" stroke="rgb(46,204,113)" stroke-width="2" stroke-dasharray="5,5" /><text x="1115" y="724.62" font-size="12" fill="rgb(46,204,113)" text-anchor="end">min=3.00</text><line x1="80" y1="657.44" x2="1120" y2="657.44" stroke="rgb(46,204,113)" stroke-width="2" stroke-dasharray="5,5" /><text x="1115" y="652.44" font-size="12" fill="rgb(46,204,113)" text-anchor="end">max=18.00</text><line x1="80" y1="693.53" x2="1120" y2="693.53" stroke="rgb(46,204,113)" stroke-width="2" /><text x="1115" y="688.53" font-size="12" fill="rgb(46,204,113)" text-anchor="end">avg=10.50</text></g><text x="600" y="25" font-size="18" font-weight="bold" fill="#333" text-anchor="middle">3d6 Dice Roll Statistics (1000 rolls)</text><text x="600" y="790" font-size="14" fill="#666" text-anchor="middle">Roll Value</text><text x="15" y="400" font-size="14" fill="#666" text-anchor="middle" transform="rotate(-90 15 400)">Frequency</text></svg>