<svg xmlns="http://www.w3.org/2000/svg" width="900" height="600" viewBox="0 0 900 600">
  <!-- Background -->
  <rect width="100%" height="100%" fill="rgb(255,255,255)" />
  
  <!-- Axes -->
  <line x1="50" y1="50" x2="50" y2="550" stroke="rgb(51,51,51)" stroke-width="2" />
  <line x1="50" y1="550" x2="850" y2="550" stroke="rgb(51,51,51)" stroke-width="2" />
  
  <!-- Horizontal Grid Lines (8 lines) -->
  <line x1="50" y1="494.44" x2="850" y2="494.44" stroke="rgb(224,224,224)" stroke-width="1.0" opacity="0.7" />
  <line x1="50" y1="438.89" x2="850" y2="438.89" stroke="rgb(224,224,224)" stroke-width="1.0" opacity="0.7" />
  <line x1="50" y1="383.33" x2="850" y2="383.33" stroke="rgb(224,224,224)" stroke-width="1.0" opacity="0.7" />
  <line x1="50" y1="327.78" x2="850" y2="327.78" stroke="rgb(224,224,224)" stroke-width="1.0" opacity="0.7" />
  <line x1="50" y1="272.22" x2="850" y2="272.22" stroke="rgb(224,224,224)" stroke-width="1.0" opacity="0.7" />
  <line x1="50" y1="216.67" x2="850" y2="216.67" stroke="rgb(224,224,224)" stroke-width="1.0" opacity="0.7" />
  <line x1="50" y1="161.11" x2="850" y2="161.11" stroke="rgb(224,224,224)" stroke-width="1.0" opacity="0.7" />
  <line x1="50" y1="105.56" x2="850" y2="105.56" stroke="rgb(224,224,224)" stroke-width="1.0" opacity="0.7" />
  
  <!-- Vertical Grid Lines (5 lines) -->
  <line x1="183.33" y1="50" x2="183.33" y2="550" stroke="rgb(224,224,224)" stroke-width="1.0" opacity="0.7" />
  <line x1="316.67" y1="50" x2="316.67" y2="550" stroke="rgb(224,224,224)" stroke-width="1.0" opacity="0.7" />
  <line x1="450.00" y1="50" x2="450.00" y2="550" stroke="rgb(224,224,224)" stroke-width="1.0" opacity="0.7" />
  <line x1="583.33" y1="50" x2="583.33" y2="550" stroke="rgb(224,224,224)" stroke-width="1.0" opacity="0.7" />
  <line x1="716.67" y1="50" x2="716.67" y2="550" stroke="rgb(224,224,224)" stroke-width="1.0" opacity="0.7" />
  
  <!-- Data Series 1: Temperature (Red) -->
  <path d="M 50,550 L 183.33333333333,438.88888888889 L 316.66666666667,383.33333333333 L 450,405.55555555556 L 583.33333333333,361.11111111111 L 716.66666666667,327.77777777778 L 850,350" 
        fill="none" stroke="rgb(255,87,51)" stroke-width="2" />
  
  <!-- Data Series 2: Humidity (Blue) -->
  <path d="M 50,50 L 183.33333333333,105.55555555556 L 316.66666666667,161.11111111111 L 450,138.88888888889 L 583.33333333333,183.33333333333 L 716.66666666667,216.66666666667 L 850,194.44444444444" 
        fill="none" stroke="rgb(51,193,255)" stroke-width="2" />
</svg>
