<svg xmlns="http://www.w3.org/2000/svg" width="800" height="600" viewBox="0 0 800 600"><rect width="100%" height="100%" fill="rgb(255,255,255)" /><line x1="50" y1="50" x2="50" y2="550" stroke="rgb(51,51,51)" stroke-width="2" /><line x1="50" y1="550" x2="750" y2="550" stroke="rgb(51,51,51)" stroke-width="2" /><line x1="50" y1="496.81" x2="750" y2="496.81" stroke="rgb(102,102,102)" stroke-width="1.0" opacity="0.7" /><line x1="50" y1="443.62" x2="750" y2="443.62" stroke="rgb(102,102,102)" stroke-width="1.0" opacity="0.7" /><line x1="50" y1="390.43" x2="750" y2="390.43" stroke="rgb(102,102,102)" stroke-width="1.0" opacity="0.7" /><line x1="50" y1="337.23" x2="750" y2="337.23" stroke="rgb(102,102,102)" stroke-width="1.0" opacity="0.7" /><line x1="50" y1="284.04" x2="750" y2="284.04" stroke="rgb(102,102,102)" stroke-width="1.0" opacity="0.7" /><line x1="50" y1="230.85" x2="750" y2="230.85" stroke="rgb(102,102,102)" stroke-width="1.0" opacity="0.7" /><line x1="50" y1="177.66" x2="750" y2="177.66" stroke="rgb(102,102,102)" stroke-width="1.0" opacity="0.7" /><line x1="50" y1="124.47" x2="750" y2="124.47" stroke="rgb(102,102,102)" stroke-width="1.0" opacity="0.7" /><line x1="50" y1="71.28" x2="750" y2="71.28" stroke="rgb(102,102,102)" stroke-width="1.0" opacity="0.7" /><line x1="166.67" y1="50" x2="166.67" y2="550" stroke="rgb(102,102,102)" stroke-width="1.0" opacity="0.7" /><line x1="283.33" y1="50" x2="283.33" y2="550" stroke="rgb(102,102,102)" stroke-width="1.0" opacity="0.7" /><line x1="400.00" y1="50" x2="400.00" y2="550" stroke="rgb(102,102,102)" stroke-width="1.0" opacity="0.7" /><line x1="516.67" y1="50" x2="516.67" y2="550" stroke="rgb(102,102,102)" stroke-width="1.0" opacity="0.7" /><line x1="633.33" y1="50" x2="633.33" y2="550" stroke="rgb(102,102,102)" stroke-width="1.0" opacity="0.7" /><rect x="93.750000" y="230.851064" width="87.500000" height="319.148936" fill="rgb(52,73,94)" /><text x="137.50" y="225.85" font-size="12" fill="#333" text-anchor="middle">125</text><rect x="268.750000" y="411.702128" width="87.500000" height="138.297872" fill="rgb(52,73,94)" /><text x="312.50" y="406.70" font-size="12" fill="#333" text-anchor="middle">108</text><rect x="443.750000" y="50.000000" width="87.500000" height="500.000000" fill="rgb(52,73,94)" /><text x="487.50" y="45.00" font-size="12" fill="#333" text-anchor="middle">142</text><rect x="618.750000" y="550.000000" width="87.500000" height="0.000000" fill="rgb(52,73,94)" /><text x="662.50" y="545.00" font-size="12" fill="#333" text-anchor="middle">95</text><text x="400" y="25" font-size="18" font-weight="bold" fill="#333" text-anchor="middle">Quarterly Operating Costs</text><text x="400" y="590" font-size="14" fill="#666" text-anchor="middle">Quarter</text><text x="15" y="300" font-size="14" fill="#666" text-anchor="middle" transform="rotate(-90 15 300)">Cost ($1000s)</text></svg>