<svg xmlns="http://www.w3.org/2000/svg" width="800" height="600" viewBox="0 0 800 600"><rect width="100%" height="100%" fill="rgb(255,255,255)" /><line x1="50" y1="50" x2="50" y2="550" stroke="rgb(51,51,51)" stroke-width="2" /><line x1="50" y1="550" x2="750" y2="550" stroke="rgb(51,51,51)" stroke-width="2" /><rect x="108.333333" y="550.000000" width="116.666667" height="0.000000" fill="rgb(255,99,132)" /><rect x="341.666667" y="264.285714" width="116.666667" height="285.714286" fill="rgb(255,99,132)" /><rect x="575.000000" y="407.142857" width="116.666667" height="142.857143" fill="rgb(255,99,132)" /><rect x="108.333333" y="335.714286" width="116.666667" height="214.285714" fill="rgb(54,162,235)" /><rect x="341.666667" y="50.000000" width="116.666667" height="500.000000" fill="rgb(54,162,235)" /><rect x="575.000000" y="192.857143" width="116.666667" height="357.142857" fill="rgb(54,162,235)" /><text x="400" y="25" font-size="18" font-weight="bold" fill="#333" text-anchor="middle">Quarterly Sales Comparison</text><text x="400" y="590" font-size="14" fill="#666" text-anchor="middle">Quarter</text><text x="15" y="300" font-size="14" fill="#666" text-anchor="middle" transform="rotate(-90 15 300)">Revenue ($1000s)</text><rect x="330.00" y="10.00" width="140" height="60" fill="rgb(255,255,255)" stroke="rgb(204,204,204)" stroke-width="1" /><rect x="340.00" y="24.00" width="12" height="12" fill="rgb(255,99,132)" /><text x="360.00" y="34.00" font-size="12" fill="rgb(51,51,51)" text-anchor="start">Q1 2023</text><rect x="340.00" y="44.00" width="12" height="12" fill="rgb(54,162,235)" /><text x="360.00" y="54.00" font-size="12" fill="rgb(51,51,51)" text-anchor="start">Q2 2023</text></svg>