<svg xmlns="http://www.w3.org/2000/svg" width="800" height="600" viewBox="0 0 800 600"><rect width="100%" height="100%" fill="rgb(255,255,255)" /><path d="M 400.00,300.00 L 400.00,90.00 A 210.00,210.00 0 0,1 569.89,423.43 Z" fill="rgb(255,99,132)" stroke="#fff" stroke-width="2" /><path d="M 400.00,300.00 L 569.89,423.43 A 210.00,210.00 0 0,1 276.57,469.89 Z" fill="rgb(255,99,132)" stroke="#fff" stroke-width="2" /><path d="M 400.00,300.00 L 276.57,469.89 A 210.00,210.00 0 0,1 193.72,260.65 Z" fill="rgb(255,99,132)" stroke="#fff" stroke-width="2" /><path d="M 400.00,300.00 L 193.72,260.65 A 210.00,210.00 0 0,1 276.57,130.11 Z" fill="rgb(255,99,132)" stroke="#fff" stroke-width="2" /><path d="M 400.00,300.00 L 276.57,130.11 A 210.00,210.00 0 0,1 400.00,90.00 Z" fill="rgb(255,99,132)" stroke="#fff" stroke-width="2" /><text x="400" y="25" font-size="18" font-weight="bold" fill="#333" text-anchor="middle">Market Share by Product</text><rect x="650.00" y="280.00" width="140" height="40" fill="rgb(255,255,255)" stroke="rgb(204,204,204)" stroke-width="1" /><rect x="660.00" y="294.00" width="12" height="12" fill="rgb(255,99,132)" /><text x="680.00" y="304.00" font-size="12" fill="rgb(51,51,51)" text-anchor="start">Products</text></svg>