<svg xmlns="http://www.w3.org/2000/svg" width="800" height="600" viewBox="0 0 800 600"><rect width="100%" height="100%" fill="rgb(255,255,255)" /><path d="M 400.00,300.00 L 400.00,90.00 A 210.00,210.00 0 0,1 569.89,423.43 Z" fill="rgb(255,99,132)" stroke="#fff" stroke-width="2" /><text x="521.62" y="238.03" font-size="12" fill="#fff" text-anchor="middle" dominant-baseline="middle">Product A</text><path d="M 400.00,300.00 L 569.89,423.43 A 210.00,210.00 0 0,1 276.57,469.89 Z" fill="rgb(54,162,235)" stroke="#fff" stroke-width="2" /><text x="421.35" y="434.82" font-size="12" fill="#fff" text-anchor="middle" dominant-baseline="middle">Product B</text><path d="M 400.00,300.00 L 276.57,469.89 A 210.00,210.00 0 0,1 193.72,260.65 Z" fill="rgb(255,206,86)" stroke="#fff" stroke-width="2" /><text x="273.09" y="350.25" font-size="12" fill="#fff" text-anchor="middle" dominant-baseline="middle">Product C</text><path d="M 400.00,300.00 L 193.72,260.65 A 210.00,210.00 0 0,1 276.57,130.11 Z" fill="rgb(75,192,192)" stroke="#fff" stroke-width="2" /><text x="284.75" y="226.86" font-size="12" fill="#fff" text-anchor="middle" dominant-baseline="middle">Product D</text><path d="M 400.00,300.00 L 276.57,130.11 A 210.00,210.00 0 0,1 400.00,90.00 Z" fill="rgb(153,102,255)" stroke="#fff" stroke-width="2" /><text x="357.82" y="170.18" font-size="12" fill="#fff" text-anchor="middle" dominant-baseline="middle">Product E</text><text x="400" y="25" font-size="18" font-weight="bold" fill="#333" text-anchor="middle">Market Share by Product</text></svg>