<svg xmlns="http://www.w3.org/2000/svg" width="900" height="900" viewBox="0 0 900 900"><rect width="100%" height="100%" fill="rgb(248,249,250)" /><circle cx="450.00" cy="450.00" r="74.00" fill="none" stroke="rgb(51,51,51)" stroke-width="1" opacity="0.3" /><circle cx="450.00" cy="450.00" r="148.00" fill="none" stroke="rgb(51,51,51)" stroke-width="1" opacity="0.3" /><circle cx="450.00" cy="450.00" r="222.00" fill="none" stroke="rgb(51,51,51)" stroke-width="1" opacity="0.3" /><circle cx="450.00" cy="450.00" r="296.00" fill="none" stroke="rgb(51,51,51)" stroke-width="1" opacity="0.3" /><circle cx="450.00" cy="450.00" r="370.00" fill="none" stroke="rgb(51,51,51)" stroke-width="1" opacity="0.3" /><line x1="450.00" y1="450.00" x2="450.00" y2="80.00" stroke="rgb(51,51,51)" stroke-width="1" opacity="0.5" /><text x="450.00" y="60.00" font-size="12" fill="#333" text-anchor="middle" dominant-baseline="middle">Speed</text><line x1="450.00" y1="450.00" x2="770.43" y2="265.00" stroke="rgb(51,51,51)" stroke-width="1" opacity="0.5" /><text x="787.75" y="255.00" font-size="12" fill="#333" text-anchor="middle" dominant-baseline="middle">Strength</text><line x1="450.00" y1="450.00" x2="770.43" y2="635.00" stroke="rgb(51,51,51)" stroke-width="1" opacity="0.5" /><text x="787.75" y="645.00" font-size="12" fill="#333" text-anchor="middle" dominant-baseline="middle">Agility</text><line x1="450.00" y1="450.00" x2="450.00" y2="820.00" stroke="rgb(51,51,51)" stroke-width="1" opacity="0.5" /><text x="450.00" y="840.00" font-size="12" fill="#333" text-anchor="middle" dominant-baseline="middle">Stamina</text><line x1="450.00" y1="450.00" x2="129.57" y2="635.00" stroke="rgb(51,51,51)" stroke-width="1" opacity="0.5" /><text x="112.25" y="645.00" font-size="12" fill="#333" text-anchor="middle" dominant-baseline="middle">Defense</text><line x1="450.00" y1="450.00" x2="129.57" y2="265.00" stroke="rgb(51,51,51)" stroke-width="1" opacity="0.5" /><text x="112.25" y="255.00" font-size="12" fill="#333" text-anchor="middle" dominant-baseline="middle">Skill</text><polygon points="450.00,135.50 690.32,311.25 738.39,616.50 450.00,709.00 193.66,598.00 168.02,287.20" fill="rgb(255,99,132)" fill-opacity="0.3" stroke="rgb(255,99,132)" stroke-width="2" /><circle cx="450.00" cy="135.50" r="4" fill="rgb(255,99,132)" stroke="#fff" stroke-width="2" /><circle cx="690.32" cy="311.25" r="4" fill="rgb(255,99,132)" stroke="#fff" stroke-width="2" /><circle cx="738.39" cy="616.50" r="4" fill="rgb(255,99,132)" stroke="#fff" stroke-width="2" /><circle cx="450.00" cy="709.00" r="4" fill="rgb(255,99,132)" stroke="#fff" stroke-width="2" /><circle cx="193.66" cy="598.00" r="4" fill="rgb(255,99,132)" stroke="#fff" stroke-width="2" /><circle cx="168.02" cy="287.20" r="4" fill="rgb(255,99,132)" stroke="#fff" stroke-width="2" /><polygon points="450.00,161.40 744.80,279.80 690.32,588.75 450.00,764.50 168.02,612.80 219.29,316.80" fill="rgb(54,162,235)" fill-opacity="0.3" stroke="rgb(54,162,235)" stroke-width="2" /><circle cx="450.00" cy="161.40" r="4" fill="rgb(54,162,235)" stroke="#fff" stroke-width="2" /><circle cx="744.80" cy="279.80" r="4" fill="rgb(54,162,235)" stroke="#fff" stroke-width="2" /><circle cx="690.32" cy="588.75" r="4" fill="rgb(54,162,235)" stroke="#fff" stroke-width="2" /><circle cx="450.00" cy="764.50" r="4" fill="rgb(54,162,235)" stroke="#fff" stroke-width="2" /><circle cx="168.02" cy="612.80" r="4" fill="rgb(54,162,235)" stroke="#fff" stroke-width="2" /><circle cx="219.29" cy="316.80" r="4" fill="rgb(54,162,235)" stroke="#fff" stroke-width="2" /><polygon points="450.00,117.00 667.89,324.20 722.36,607.25 450.00,738.60 219.29,583.20 145.59,274.25" fill="rgb(255,206,86)" fill-opacity="0.3" stroke="rgb(255,206,86)" stroke-width="2" /><circle cx="450.00" cy="117.00" r="4" fill="rgb(255,206,86)" stroke="#fff" stroke-width="2" /><circle cx="667.89" cy="324.20" r="4" fill="rgb(255,206,86)" stroke="#fff" stroke-width="2" /><circle cx="722.36" cy="607.25" r="4" fill="rgb(255,206,86)" stroke="#fff" stroke-width="2" /><circle cx="450.00" cy="738.60" r="4" fill="rgb(255,206,86)" stroke="#fff" stroke-width="2" /><circle cx="219.29" cy="583.20" r="4" fill="rgb(255,206,86)" stroke="#fff" stroke-width="2" /><circle cx="145.59" cy="274.25" r="4" fill="rgb(255,206,86)" stroke="#fff" stroke-width="2" /><text x="450" y="25" font-size="18" font-weight="bold" fill="#333" text-anchor="middle">Player Performance Comparison</text><rect x="750.00" y="410.00" width="140" height="80" fill="rgb(255,255,255)" stroke="rgb(204,204,204)" stroke-width="1" /><rect x="760.00" y="424.00" width="12" height="12" fill="rgb(255,99,132)" /><text x="780.00" y="434.00" font-size="12" fill="rgb(51,51,51)" text-anchor="start">Player 1</text><rect x="760.00" y="444.00" width="12" height="12" fill="rgb(54,162,235)" /><text x="780.00" y="454.00" font-size="12" fill="rgb(51,51,51)" text-anchor="start">Player 2</text><rect x="760.00" y="464.00" width="12" height="12" fill="rgb(255,206,86)" /><text x="780.00" y="474.00" font-size="12" fill="rgb(51,51,51)" text-anchor="start">Player 3</text></svg>