<svg xmlns="http://www.w3.org/2000/svg" width="800" height="600" viewBox="0 0 800 600"><rect width="100%" height="100%" fill="rgb(255,255,255)" /><line x1="50" y1="50" x2="50" y2="550" stroke="rgb(51,51,51)" stroke-width="2" /><line x1="50" y1="550" x2="750" y2="550" stroke="rgb(51,51,51)" stroke-width="2" /><line x1="50" y1="500.00" x2="750" y2="500.00" stroke="rgb(221,221,221)" stroke-width="1.0" opacity="0.7" /><line x1="50" y1="450.00" x2="750" y2="450.00" stroke="rgb(221,221,221)" stroke-width="1.0" opacity="0.7" /><line x1="50" y1="400.00" x2="750" y2="400.00" stroke="rgb(221,221,221)" stroke-width="1.0" opacity="0.7" /><line x1="50" y1="350.00" x2="750" y2="350.00" stroke="rgb(221,221,221)" stroke-width="1.0" opacity="0.7" /><line x1="50" y1="300.00" x2="750" y2="300.00" stroke="rgb(221,221,221)" stroke-width="1.0" opacity="0.7" /><line x1="50" y1="250.00" x2="750" y2="250.00" stroke="rgb(221,221,221)" stroke-width="1.0" opacity="0.7" /><line x1="50" y1="200.00" x2="750" y2="200.00" stroke="rgb(221,221,221)" stroke-width="1.0" opacity="0.7" /><line x1="50" y1="150.00" x2="750" y2="150.00" stroke="rgb(221,221,221)" stroke-width="1.0" opacity="0.7" /><line x1="50" y1="100.00" x2="750" y2="100.00" stroke="rgb(221,221,221)" stroke-width="1.0" opacity="0.7" /><line x1="137.50" y1="50" x2="137.50" y2="550" stroke="rgb(221,221,221)" stroke-width="1.0" opacity="0.7" /><line x1="225.00" y1="50" x2="225.00" y2="550" stroke="rgb(221,221,221)" stroke-width="1.0" opacity="0.7" /><line x1="312.50" y1="50" x2="312.50" y2="550" stroke="rgb(221,221,221)" stroke-width="1.0" opacity="0.7" /><line x1="400.00" y1="50" x2="400.00" y2="550" stroke="rgb(221,221,221)" stroke-width="1.0" opacity="0.7" /><line x1="487.50" y1="50" x2="487.50" y2="550" stroke="rgb(221,221,221)" stroke-width="1.0" opacity="0.7" /><line x1="575.00" y1="50" x2="575.00" y2="550" stroke="rgb(221,221,221)" stroke-width="1.0" opacity="0.7" /><line x1="662.50" y1="50" x2="662.50" y2="550" stroke="rgb(221,221,221)" stroke-width="1.0" opacity="0.7" /><circle cx="225.00" cy="125.00" r="4" fill="rgb(255,99,132)" /><text x="225.00" y="117.00" font-size="12" fill="#333" text-anchor="middle">85</text><circle cx="312.50" cy="100.00" r="4" fill="rgb(255,99,132)" /><text x="312.50" y="92.00" font-size="12" fill="#333" text-anchor="middle">90</text><circle cx="400.00" cy="110.00" r="4" fill="rgb(255,99,132)" /><text x="400.00" y="102.00" font-size="12" fill="#333" text-anchor="middle">88</text><circle cx="487.50" cy="90.00" r="4" fill="rgb(255,99,132)" /><text x="487.50" y="82.00" font-size="12" fill="#333" text-anchor="middle">92</text><circle cx="575.00" cy="75.00" r="4" fill="rgb(255,99,132)" /><text x="575.00" y="67.00" font-size="12" fill="#333" text-anchor="middle">95</text><circle cx="260.00" cy="200.00" r="4" fill="rgb(54,162,235)" /><text x="260.00" y="192.00" font-size="12" fill="#333" text-anchor="middle">70</text><circle cx="365.00" cy="175.00" r="4" fill="rgb(54,162,235)" /><text x="365.00" y="167.00" font-size="12" fill="#333" text-anchor="middle">75</text><circle cx="435.00" cy="190.00" r="4" fill="rgb(54,162,235)" /><text x="435.00" y="182.00" font-size="12" fill="#333" text-anchor="middle">72</text><circle cx="540.00" cy="160.00" r="4" fill="rgb(54,162,235)" /><text x="540.00" y="152.00" font-size="12" fill="#333" text-anchor="middle">78</text><circle cx="610.00" cy="150.00" r="4" fill="rgb(54,162,235)" /><text x="610.00" y="142.00" font-size="12" fill="#333" text-anchor="middle">80</text><text x="400" y="25" font-size="18" font-weight="bold" fill="#333" text-anchor="middle">Product Performance: Price vs Customer Satisfaction</text><text x="400" y="590" font-size="14" fill="#666" text-anchor="middle">Price ($)</text><text x="15" y="300" font-size="14" fill="#666" text-anchor="middle" transform="rotate(-90 15 300)">Satisfaction Score</text></svg>