<svg xmlns="http://www.w3.org/2000/svg" width="1000" height="600" viewBox="0 0 1000 600"><rect width="100%" height="100%" fill="rgb(255,255,255)" /><line x1="50" y1="50" x2="50" y2="550" stroke="rgb(51,51,51)" stroke-width="2" /><line x1="50" y1="550" x2="950" y2="550" stroke="rgb(51,51,51)" stroke-width="2" /><line x1="50" y1="500.00" x2="950" y2="500.00" stroke="rgb(221,221,221)" stroke-width="1.0" opacity="0.7" /><line x1="50" y1="450.00" x2="950" y2="450.00" stroke="rgb(221,221,221)" stroke-width="1.0" opacity="0.7" /><line x1="50" y1="400.00" x2="950" y2="400.00" stroke="rgb(221,221,221)" stroke-width="1.0" opacity="0.7" /><line x1="50" y1="350.00" x2="950" y2="350.00" stroke="rgb(221,221,221)" stroke-width="1.0" opacity="0.7" /><line x1="50" y1="300.00" x2="950" y2="300.00" stroke="rgb(221,221,221)" stroke-width="1.0" opacity="0.7" /><line x1="50" y1="250.00" x2="950" y2="250.00" stroke="rgb(221,221,221)" stroke-width="1.0" opacity="0.7" /><line x1="50" y1="200.00" x2="950" y2="200.00" stroke="rgb(221,221,221)" stroke-width="1.0" opacity="0.7" /><line x1="50" y1="150.00" x2="950" y2="150.00" stroke="rgb(221,221,221)" stroke-width="1.0" opacity="0.7" /><line x1="50" y1="100.00" x2="950" y2="100.00" stroke="rgb(221,221,221)" stroke-width="1.0" opacity="0.7" /><line x1="140.00" y1="50" x2="140.00" y2="550" stroke="rgb(221,221,221)" stroke-width="1.0" opacity="0.7" /><line x1="230.00" y1="50" x2="230.00" y2="550" stroke="rgb(221,221,221)" stroke-width="1.0" opacity="0.7" /><line x1="320.00" y1="50" x2="320.00" y2="550" stroke="rgb(221,221,221)" stroke-width="1.0" opacity="0.7" /><line x1="410.00" y1="50" x2="410.00" y2="550" stroke="rgb(221,221,221)" stroke-width="1.0" opacity="0.7" /><line x1="500.00" y1="50" x2="500.00" y2="550" stroke="rgb(221,221,221)" stroke-width="1.0" opacity="0.7" /><line x1="590.00" y1="50" x2="590.00" y2="550" stroke="rgb(221,221,221)" stroke-width="1.0" opacity="0.7" /><line x1="680.00" y1="50" x2="680.00" y2="550" stroke="rgb(221,221,221)" stroke-width="1.0" opacity="0.7" /><line x1="770.00" y1="50" x2="770.00" y2="550" stroke="rgb(221,221,221)" stroke-width="1.0" opacity="0.7" /><line x1="860.00" y1="50" x2="860.00" y2="550" stroke="rgb(221,221,221)" stroke-width="1.0" opacity="0.7" /><circle cx="275.00" cy="340.00" r="4" fill="rgb(155,89,182)" /><circle cx="392.00" cy="245.00" r="4" fill="rgb(155,89,182)" /><circle cx="518.00" cy="260.00" r="4" fill="rgb(155,89,182)" /><circle cx="635.00" cy="155.00" r="4" fill="rgb(155,89,182)" /><circle cx="779.00" cy="85.00" r="4" fill="rgb(155,89,182)" /><circle cx="455.00" cy="190.00" r="4" fill="rgb(155,89,182)" /><circle cx="320.00" cy="375.00" r="4" fill="rgb(230,126,34)" /><circle cx="455.00" cy="290.00" r="4" fill="rgb(230,126,34)" /><circle cx="590.00" cy="210.00" r="4" fill="rgb(230,126,34)" /><circle cx="725.00" cy="145.00" r="4" fill="rgb(230,126,34)" /><circle cx="860.00" cy="55.00" r="4" fill="rgb(230,126,34)" /><circle cx="500.00" cy="175.00" r="4" fill="rgb(230,126,34)" /><text x="500" y="25" font-size="18" font-weight="bold" fill="#333" text-anchor="middle">Data Distribution Analysis</text><text x="500" y="590" font-size="14" fill="#666" text-anchor="middle">X Axis</text><text x="15" y="300" font-size="14" fill="#666" text-anchor="middle" transform="rotate(-90 15 300)">Y Axis</text><rect x="850.00" y="270.00" width="140" height="60" fill="rgb(255,255,255)" stroke="rgb(204,204,204)" stroke-width="1" /><rect x="860.00" y="284.00" width="12" height="12" fill="rgb(155,89,182)" /><text x="880.00" y="294.00" font-size="12" fill="rgb(51,51,51)" text-anchor="start">Group A</text><rect x="860.00" y="304.00" width="12" height="12" fill="rgb(230,126,34)" /><text x="880.00" y="314.00" font-size="12" fill="rgb(51,51,51)" text-anchor="start">Group B</text></svg>