<svg xmlns="http://www.w3.org/2000/svg" width="800" height="800" viewBox="0 0 800 800"><rect width="100%" height="100%" fill="rgb(255,255,255)" /><circle cx="400.00" cy="400.00" r="64.00" fill="none" stroke="rgb(51,51,51)" stroke-width="1" opacity="0.3" /><circle cx="400.00" cy="400.00" r="128.00" fill="none" stroke="rgb(51,51,51)" stroke-width="1" opacity="0.3" /><circle cx="400.00" cy="400.00" r="192.00" fill="none" stroke="rgb(51,51,51)" stroke-width="1" opacity="0.3" /><circle cx="400.00" cy="400.00" r="256.00" fill="none" stroke="rgb(51,51,51)" stroke-width="1" opacity="0.3" /><circle cx="400.00" cy="400.00" r="320.00" fill="none" stroke="rgb(51,51,51)" stroke-width="1" opacity="0.3" /><line x1="400.00" y1="400.00" x2="400.00" y2="80.00" stroke="rgb(51,51,51)" stroke-width="1" opacity="0.5" /><text x="400.00" y="60.00" font-size="12" fill="#333" text-anchor="middle" dominant-baseline="middle">Quality</text><line x1="400.00" y1="400.00" x2="704.34" y2="301.11" stroke="rgb(51,51,51)" stroke-width="1" opacity="0.5" /><text x="723.36" y="294.93" font-size="12" fill="#333" text-anchor="middle" dominant-baseline="middle">Price</text><line x1="400.00" y1="400.00" x2="588.09" y2="658.89" stroke="rgb(51,51,51)" stroke-width="1" opacity="0.5" /><text x="599.85" y="675.07" font-size="12" fill="#333" text-anchor="middle" dominant-baseline="middle">Performance</text><line x1="400.00" y1="400.00" x2="211.91" y2="658.89" stroke="rgb(51,51,51)" stroke-width="1" opacity="0.5" /><text x="200.15" y="675.07" font-size="12" fill="#333" text-anchor="middle" dominant-baseline="middle">Design</text><line x1="400.00" y1="400.00" x2="95.66" y2="301.11" stroke="rgb(51,51,51)" stroke-width="1" opacity="0.5" /><text x="76.64" y="294.93" font-size="12" fill="#333" text-anchor="middle" dominant-baseline="middle">Support</text><polygon points="400.00,112.00 613.04,330.78 550.47,607.11 287.15,555.33 156.53,320.89" fill="rgb(22,160,133)" fill-opacity="0.3" stroke="rgb(22,160,133)" stroke-width="2" /><circle cx="400.00" cy="112.00" r="4" fill="rgb(22,160,133)" stroke="#fff" stroke-width="2" /><circle cx="613.04" cy="330.78" r="4" fill="rgb(22,160,133)" stroke="#fff" stroke-width="2" /><circle cx="550.47" cy="607.11" r="4" fill="rgb(22,160,133)" stroke="#fff" stroke-width="2" /><circle cx="287.15" cy="555.33" r="4" fill="rgb(22,160,133)" stroke="#fff" stroke-width="2" /><circle cx="156.53" cy="320.89" r="4" fill="rgb(22,160,133)" stroke="#fff" stroke-width="2" /><polygon points="400.00,176.00 673.90,311.00 512.85,555.33 249.53,607.11 186.96,330.78" fill="rgb(192,57,43)" fill-opacity="0.3" stroke="rgb(192,57,43)" stroke-width="2" /><circle cx="400.00" cy="176.00" r="4" fill="rgb(192,57,43)" stroke="#fff" stroke-width="2" /><circle cx="673.90" cy="311.00" r="4" fill="rgb(192,57,43)" stroke="#fff" stroke-width="2" /><circle cx="512.85" cy="555.33" r="4" fill="rgb(192,57,43)" stroke="#fff" stroke-width="2" /><circle cx="249.53" cy="607.11" r="4" fill="rgb(192,57,43)" stroke="#fff" stroke-width="2" /><circle cx="186.96" cy="330.78" r="4" fill="rgb(192,57,43)" stroke="#fff" stroke-width="2" /><text x="400" y="25" font-size="18" font-weight="bold" fill="#333" text-anchor="middle">Product Comparison</text><rect x="650.00" y="370.00" width="140" height="60" fill="rgb(255,255,255)" stroke="rgb(204,204,204)" stroke-width="1" /><rect x="660.00" y="384.00" width="12" height="12" fill="rgb(22,160,133)" /><text x="680.00" y="394.00" font-size="12" fill="rgb(51,51,51)" text-anchor="start">Product A</text><rect x="660.00" y="404.00" width="12" height="12" fill="rgb(192,57,43)" /><text x="680.00" y="414.00" font-size="12" fill="rgb(51,51,51)" text-anchor="start">Product B</text></svg>