<svg xmlns="http://www.w3.org/2000/svg" width="1000" height="600" viewBox="0 0 1000 600"><rect width="100%" height="100%" fill="rgb(248,249,250)" /><line x1="50" y1="50" x2="50" y2="550" stroke="rgb(51,51,51)" stroke-width="2" /><line x1="50" y1="550" x2="950" y2="550" stroke="rgb(51,51,51)" stroke-width="2" /><line x1="50" y1="487.50" x2="950" y2="487.50" stroke="rgb(204,204,204)" stroke-width="1.0" opacity="0.7" /><line x1="50" y1="425.00" x2="950" y2="425.00" stroke="rgb(204,204,204)" stroke-width="1.0" opacity="0.7" /><line x1="50" y1="362.50" x2="950" y2="362.50" stroke="rgb(204,204,204)" stroke-width="1.0" opacity="0.7" /><line x1="50" y1="300.00" x2="950" y2="300.00" stroke="rgb(204,204,204)" stroke-width="1.0" opacity="0.7" /><line x1="50" y1="237.50" x2="950" y2="237.50" stroke="rgb(204,204,204)" stroke-width="1.0" opacity="0.7" /><line x1="50" y1="175.00" x2="950" y2="175.00" stroke="rgb(204,204,204)" stroke-width="1.0" opacity="0.7" /><line x1="50" y1="112.50" x2="950" y2="112.50" stroke="rgb(204,204,204)" stroke-width="1.0" opacity="0.7" /><line x1="200.00" y1="50" x2="200.00" y2="550" stroke="rgb(204,204,204)" stroke-width="1.0" opacity="0.7" /><line x1="350.00" y1="50" x2="350.00" y2="550" stroke="rgb(204,204,204)" stroke-width="1.0" opacity="0.7" /><line x1="500.00" y1="50" x2="500.00" y2="550" stroke="rgb(204,204,204)" stroke-width="1.0" opacity="0.7" /><line x1="650.00" y1="50" x2="650.00" y2="550" stroke="rgb(204,204,204)" stroke-width="1.0" opacity="0.7" /><line x1="800.00" y1="50" x2="800.00" y2="550" stroke="rgb(204,204,204)" stroke-width="1.0" opacity="0.7" /><rect x="106.250000" y="268.750000" width="112.500000" height="281.250000" fill="rgb(52,152,219)" /><rect x="331.250000" y="225.000000" width="112.500000" height="325.000000" fill="rgb(52,152,219)" /><rect x="556.250000" y="250.000000" width="112.500000" height="300.000000" fill="rgb(52,152,219)" /><rect x="781.250000" y="175.000000" width="112.500000" height="375.000000" fill="rgb(52,152,219)" /><rect x="106.250000" y="237.500000" width="112.500000" height="312.500000" fill="rgb(46,204,113)" /><rect x="331.250000" y="187.500000" width="112.500000" height="362.500000" fill="rgb(46,204,113)" /><rect x="556.250000" y="206.250000" width="112.500000" height="343.750000" fill="rgb(46,204,113)" /><rect x="781.250000" y="125.000000" width="112.500000" height="425.000000" fill="rgb(46,204,113)" /><text x="500" y="25" font-size="18" font-weight="bold" fill="#333" text-anchor="middle">Quarterly Revenue Comparison</text><text x="500" y="590" font-size="14" fill="#666" text-anchor="middle">Quarter</text><text x="15" y="300" font-size="14" fill="#666" text-anchor="middle" transform="rotate(-90 15 300)">Revenue ($M)</text><rect x="850.00" y="270.00" width="140" height="60" fill="rgb(255,255,255)" stroke="rgb(204,204,204)" stroke-width="1" /><rect x="860.00" y="284.00" width="12" height="12" fill="rgb(52,152,219)" /><text x="880.00" y="294.00" font-size="12" fill="rgb(51,51,51)" text-anchor="start">2023</text><rect x="860.00" y="304.00" width="12" height="12" fill="rgb(46,204,113)" /><text x="880.00" y="314.00" font-size="12" fill="rgb(51,51,51)" text-anchor="start">2024</text></svg>