<svg xmlns="http://www.w3.org/2000/svg" width="1400" height="700" viewBox="0 0 1400 700"><rect width="100%" height="100%" fill="rgb(245,245,245)" /><line x1="50" y1="50" x2="50" y2="650" stroke="rgb(51,51,51)" stroke-width="2" /><line x1="50" y1="650" x2="1350" y2="650" stroke="rgb(51,51,51)" stroke-width="2" /><line x1="50" y1="590.00" x2="1350" y2="590.00" stroke="rgb(221,221,221)" stroke-width="1.0" opacity="0.7" /><line x1="50" y1="530.00" x2="1350" y2="530.00" stroke="rgb(221,221,221)" stroke-width="1.0" opacity="0.7" /><line x1="50" y1="470.00" x2="1350" y2="470.00" stroke="rgb(221,221,221)" stroke-width="1.0" opacity="0.7" /><line x1="50" y1="410.00" x2="1350" y2="410.00" stroke="rgb(221,221,221)" stroke-width="1.0" opacity="0.7" /><line x1="50" y1="350.00" x2="1350" y2="350.00" stroke="rgb(221,221,221)" stroke-width="1.0" opacity="0.7" /><line x1="50" y1="290.00" x2="1350" y2="290.00" stroke="rgb(221,221,221)" stroke-width="1.0" opacity="0.7" /><line x1="50" y1="230.00" x2="1350" y2="230.00" stroke="rgb(221,221,221)" stroke-width="1.0" opacity="0.7" /><line x1="50" y1="170.00" x2="1350" y2="170.00" stroke="rgb(221,221,221)" stroke-width="1.0" opacity="0.7" /><line x1="50" y1="110.00" x2="1350" y2="110.00" stroke="rgb(221,221,221)" stroke-width="1.0" opacity="0.7" /><line x1="182.65" y1="50" x2="182.65" y2="650" stroke="rgb(221,221,221)" stroke-width="1.0" opacity="0.7" /><line x1="315.31" y1="50" x2="315.31" y2="650" stroke="rgb(221,221,221)" stroke-width="1.0" opacity="0.7" /><line x1="447.96" y1="50" x2="447.96" y2="650" stroke="rgb(221,221,221)" stroke-width="1.0" opacity="0.7" /><line x1="580.61" y1="50" x2="580.61" y2="650" stroke="rgb(221,221,221)" stroke-width="1.0" opacity="0.7" /><line x1="713.27" y1="50" x2="713.27" y2="650" stroke="rgb(221,221,221)" stroke-width="1.0" opacity="0.7" /><line x1="845.92" y1="50" x2="845.92" y2="650" stroke="rgb(221,221,221)" stroke-width="1.0" opacity="0.7" /><line x1="978.57" y1="50" x2="978.57" y2="650" stroke="rgb(221,221,221)" stroke-width="1.0" opacity="0.7" /><line x1="1111.22" y1="50" x2="1111.22" y2="650" stroke="rgb(221,221,221)" stroke-width="1.0" opacity="0.7" /><line x1="1243.88" y1="50" x2="1243.88" y2="650" stroke="rgb(221,221,221)" stroke-width="1.0" opacity="0.7" /><path d="M 50,344 L 76.530612244898,308.15968030459 L 103.0612244898,279.26979892296 L 129.59183673469,276.2429031926 L 156.12244897959,257.91726909206 L 182.65306122449,267.02348182305 L 209.18367346939,226.15530968393 L 235.71428571429,237.74603240138 L 262.24489795918,218.05116763502 L 288.77551020408,233.13828429462 L 315.30612244898,222.88430878092 L 341.83673469388,240.98043154165 L 368.36734693878,244.94441833386 L 394.89795918367,288.13983538142 L 421.42857142857,315.80142198129 L 447.95918367347,345.06559903282 L 474.48979591837,363.00489721131 L 501.02040816327,398.66493224322 L 527.55102040816,421.10245319538 L 554.08163265306,417.42294691313 L 580.61224489796,416.81629943695 L 607.14285714286,442.58909268963 L 633.67346938776,470.19224886674 L 660.20408163265,445.24292043602 L 686.73469387755,451.5397530603 L 713.26530612245,453.07091295958 L 739.79591836735,462.01455868642 L 766.32653061224,424.73173850672 L 792.85714285714,407.75199654468 L 819.38775510204,393.75226152965 L 845.91836734694,377.52985978387 L 872.44897959184,353.9707283381 L 898.97959183673,354.01409541794 L 925.51020408163,312.61503637839 L 952.04081632653,272.70639786337 L 978.57142857143,295.16160815375 L 1005.1020408163,254.7598563381 L 1031.6326530612,212.1550285026 L 1058.1632653061,263.84963935622 L 1084.693877551,224.17479855505 L 1111.2244897959,225.27701040519 L 1137.7551020408,237.11233319843 L 1164.2857142857,259.44813102941 L 1190.8163265306,255.87234825511 L 1217.3469387755,279.80993685299 L 1243.8775510204,306.54578177099 L 1270.4081632653,311.25321030797 L 1296.9387755102,359.0269489456 L 1323.4693877551,382.91921374676 L 1350,417.97749551023" fill="none" stroke="rgb(231,76,60)" stroke-width="2" /><path d="M 50,249.02348182305 L 76.530612244898,208.15530968393 L 103.0612244898,231.74603240138 L 129.59183673469,224.05116763502 L 156.12244897959,263.13828429462 L 182.65306122449,222.88430878092 L 209.18367346939,222.98043154165 L 235.71428571429,262.94441833386 L 262.24489795918,300.13983538142 L 288.77551020408,291.80142198129 L 315.30612244898,303.06559903282 L 341.83673469388,369.00489721131 L 368.36734693878,386.66493224322 L 394.89795918367,385.10245319538 L 421.42857142857,453.42294691313 L 447.95918367347,446.81629943695 L 474.48979591837,478.58909268963 L 501.02040816327,458.19224886674 L 527.55102040816,487.24292043602 L 554.08163265306,475.5397530603 L 580.61224489796,441.07091295958 L 607.14285714286,450.01455868642 L 633.67346938776,412.73173850672 L 660.20408163265,419.75199654468 L 686.73469387755,417.75226152965 L 713.26530612245,365.52985978387 L 739.79591836735,347.9707283381 L 766.32653061224,330.01409541794 L 792.85714285714,330.61503637839 L 819.38775510204,302.70639786337 L 845.91836734694,277.16160815375 L 872.44897959184,278.7598563381 L 898.97959183673,212.1550285026 L 925.51020408163,263.84963935622 L 952.04081632653,254.17479855505 L 978.57142857143,255.27701040519 L 1005.1020408163,243.11233319843 L 1031.6326530612,229.44813102941 L 1058.1632653061,285.87234825511 L 1084.693877551,309.80993685299 L 1111.2244897959,282.54578177099 L 1137.7551020408,305.25321030797 L 1164.2857142857,317.0269489456 L 1190.8163265306,358.91921374676 L 1217.3469387755,363.97749551023 L 1243.8775510204,427.28253330672 L 1270.4081632653,457.98496251123 L 1296.9387755102,467.33917629028 L 1323.4693877551,484.73305059354 L 1350,461.71234760798" fill="none" stroke="rgb(52,152,219)" stroke-width="2" /><path d="M 50,258.88430878092 L 76.530612244898,228.98043154165 L 103.0612244898,286.94441833386 L 129.59183673469,306.13983538142 L 156.12244897959,291.80142198129 L 182.65306122449,303.06559903282 L 209.18367346939,357.00489721131 L 235.71428571429,374.66493224322 L 262.24489795918,379.10245319538 L 288.77551020408,399.42294691313 L 315.30612244898,458.81629943695 L 341.83673469388,424.58909268963 L 368.36734693878,476.19224886674 L 394.89795918367,481.24292043602 L 421.42857142857,457.5397530603 L 447.95918367347,459.07091295958 L 474.48979591837,432.01455868642 L 501.02040816327,448.73173850672 L 527.55102040816,455.75199654468 L 554.08163265306,411.75226152965 L 580.61224489796,395.52985978387 L 607.14285714286,347.9707283381 L 633.67346938776,324.01409541794 L 660.20408163265,324.61503637839 L 686.73469387755,266.70639786337 L 713.26530612245,295.16160815375 L 739.79591836735,278.7598563381 L 766.32653061224,272.1550285026 L 792.85714285714,227.84963935622 L 819.38775510204,260.17479855505 L 845.91836734694,261.27701040519 L 872.44897959184,267.11233319843 L 898.97959183673,253.44813102941 L 925.51020408163,273.87234825511 L 952.04081632653,279.80993685299 L 978.57142857143,270.54578177099 L 1005.1020408163,293.25321030797 L 1031.6326530612,317.0269489456 L 1058.1632653061,382.91921374676 L 1084.693877551,417.97749551023 L 1111.2244897959,433.28253330672 L 1137.7551020408,427.98496251123 L 1164.2857142857,455.33917629028 L 1190.8163265306,472.73305059354 L 1217.3469387755,485.71234760798 L 1243.8775510204,493.99882478608 L 1270.4081632653,437.50132749816 L 1296.9387755102,430.31942307976 L 1323.4693877551,424.73943139625 L 1350,445.22301017325" fill="none" stroke="rgb(46,204,113)" stroke-width="2" /><path d="M 50,351.06559903282 L 76.530612244898,351.00489721131 L 103.0612244898,404.66493224322 L 129.59183673469,373.10245319538 L 156.12244897959,393.42294691313 L 182.65306122449,440.81629943695 L 209.18367346939,460.58909268963 L 235.71428571429,452.19224886674 L 262.24489795918,451.24292043602 L 288.77551020408,469.5397530603 L 315.30612244898,447.07091295958 L 341.83673469388,480.01455868642 L 368.36734693878,454.73173850672 L 394.89795918367,401.75199654468 L 421.42857142857,381.75226152965 L 447.95918367347,389.52985978387 L 474.48979591837,353.9707283381 L 501.02040816327,342.01409541794 L 527.55102040816,324.61503637839 L 554.08163265306,320.70639786337 L 580.61224489796,247.16160815375 L 607.14285714286,254.7598563381 L 633.67346938776,224.1550285026 L 660.20408163265,209.84963935622 L 686.73469387755,254.17479855505 L 713.26530612245,219.27701040519 L 739.79591836735,213.11233319843 L 766.32653061224,217.44813102941 L 792.85714285714,285.87234825511 L 819.38775510204,261.80993685299 L 845.91836734694,282.54578177099 L 872.44897959184,305.25321030797 L 898.97959183673,335.0269489456 L 925.51020408163,382.91921374676 L 952.04081632653,387.97749551023 L 978.57142857143,433.28253330672 L 1005.1020408163,439.98496251123 L 1031.6326530612,479.33917629028 L 1058.1632653061,436.73305059354 L 1084.693877551,479.71234760798 L 1111.2244897959,493.99882478608 L 1137.7551020408,461.50132749816 L 1164.2857142857,460.31942307976 L 1190.8163265306,454.73943139625 L 1217.3469387755,433.22301017325 L 1243.8775510204,408.38875016005 L 1270.4081632653,398.98751386842 L 1296.9387755102,381.8725010538 L 1323.4693877551,375.96523433346 L 1350,334.21882098782" fill="none" stroke="rgb(243,156,18)" stroke-width="2" /><path d="M 50,458.81629943695 L 76.530612244898,424.58909268963 L 103.0612244898,464.19224886674 L 129.59183673469,487.24292043602 L 156.12244897959,451.5397530603 L 182.65306122449,477.07091295958 L 209.18367346939,480.01455868642 L 235.71428571429,442.73173850672 L 262.24489795918,449.75199654468 L 288.77551020408,411.75226152965 L 315.30612244898,353.52985978387 L 341.83673469388,329.9707283381 L 368.36734693878,330.01409541794 L 394.89795918367,324.61503637839 L 421.42857142857,320.70639786337 L 447.95918367347,289.16160815375 L 474.48979591837,284.7598563381 L 501.02040816327,218.1550285026 L 527.55102040816,239.84963935622 L 554.08163265306,248.17479855505 L 580.61224489796,249.27701040519 L 607.14285714286,243.11233319843 L 633.67346938776,229.44813102941 L 660.20408163265,237.87234825511 L 686.73469387755,297.80993685299 L 713.26530612245,270.54578177099 L 739.79591836735,323.25321030797 L 766.32653061224,371.0269489456 L 792.85714285714,388.91921374676 L 819.38775510204,405.97749551023 L 845.91836734694,391.28253330672 L 872.44897959184,457.98496251123 L 898.97959183673,473.33917629028 L 925.51020408163,472.73305059354 L 952.04081632653,473.71234760798 L 978.57142857143,469.99882478608 L 1005.1020408163,455.50132749816 L 1031.6326530612,466.31942307976 L 1058.1632653061,466.73943139625 L 1084.693877551,403.22301017325 L 1111.2244897959,384.38875016005 L 1137.7551020408,410.98751386842 L 1164.2857142857,369.8725010538 L 1190.8163265306,363.96523433346 L 1217.3469387755,292.21882098782 L 1243.8775510204,281.5799555808 L 1270.4081632653,266.95117823513 L 1296.9387755102,267.15489320571 L 1323.4693877551,240.90058221722 L 1350,236.75651966671" fill="none" stroke="rgb(155,89,182)" stroke-width="2" /><text x="700" y="25" font-size="18" font-weight="bold" fill="#333" text-anchor="middle">Complex Multi-Series Data Visualization</text><text x="700" y="690" font-size="14" fill="#666" text-anchor="middle">Time Period</text><text x="15" y="350" font-size="14" fill="#666" text-anchor="middle" transform="rotate(-90 15 350)">Value</text><rect x="1250.00" y="290.00" width="140" height="120" fill="rgb(255,255,255)" stroke="rgb(204,204,204)" stroke-width="1" /><rect x="1260.00" y="304.00" width="12" height="12" fill="rgb(231,76,60)" /><text x="1280.00" y="314.00" font-size="12" fill="rgb(51,51,51)" text-anchor="start">Series 1</text><rect x="1260.00" y="324.00" width="12" height="12" fill="rgb(52,152,219)" /><text x="1280.00" y="334.00" font-size="12" fill="rgb(51,51,51)" text-anchor="start">Series 2</text><rect x="1260.00" y="344.00" width="12" height="12" fill="rgb(46,204,113)" /><text x="1280.00" y="354.00" font-size="12" fill="rgb(51,51,51)" text-anchor="start">Series 3</text><rect x="1260.00" y="364.00" width="12" height="12" fill="rgb(243,156,18)" /><text x="1280.00" y="374.00" font-size="12" fill="rgb(51,51,51)" text-anchor="start">Series 4</text><rect x="1260.00" y="384.00" width="12" height="12" fill="rgb(155,89,182)" /><text x="1280.00" y="394.00" font-size="12" fill="rgb(51,51,51)" text-anchor="start">Series 5</text></svg>