<svg xmlns="http://www.w3.org/2000/svg" width="1400" height="700" viewBox="0 0 1400 700"><rect width="100%" height="100%" fill="rgb(245,245,245)" /><line x1="50" y1="50" x2="50" y2="650" stroke="rgb(51,51,51)" stroke-width="2" /><line x1="50" y1="650" x2="1350" y2="650" stroke="rgb(51,51,51)" stroke-width="2" /><line x1="50" y1="590.00" x2="1350" y2="590.00" stroke="rgb(221,221,221)" stroke-width="1.0" opacity="0.7" /><line x1="50" y1="530.00" x2="1350" y2="530.00" stroke="rgb(221,221,221)" stroke-width="1.0" opacity="0.7" /><line x1="50" y1="470.00" x2="1350" y2="470.00" stroke="rgb(221,221,221)" stroke-width="1.0" opacity="0.7" /><line x1="50" y1="410.00" x2="1350" y2="410.00" stroke="rgb(221,221,221)" stroke-width="1.0" opacity="0.7" /><line x1="50" y1="350.00" x2="1350" y2="350.00" stroke="rgb(221,221,221)" stroke-width="1.0" opacity="0.7" /><line x1="50" y1="290.00" x2="1350" y2="290.00" stroke="rgb(221,221,221)" stroke-width="1.0" opacity="0.7" /><line x1="50" y1="230.00" x2="1350" y2="230.00" stroke="rgb(221,221,221)" stroke-width="1.0" opacity="0.7" /><line x1="50" y1="170.00" x2="1350" y2="170.00" stroke="rgb(221,221,221)" stroke-width="1.0" opacity="0.7" /><line x1="50" y1="110.00" x2="1350" y2="110.00" stroke="rgb(221,221,221)" stroke-width="1.0" opacity="0.7" /><line x1="182.65" y1="50" x2="182.65" y2="650" stroke="rgb(221,221,221)" stroke-width="1.0" opacity="0.7" /><line x1="315.31" y1="50" x2="315.31" y2="650" stroke="rgb(221,221,221)" stroke-width="1.0" opacity="0.7" /><line x1="447.96" y1="50" x2="447.96" y2="650" stroke="rgb(221,221,221)" stroke-width="1.0" opacity="0.7" /><line x1="580.61" y1="50" x2="580.61" y2="650" stroke="rgb(221,221,221)" stroke-width="1.0" opacity="0.7" /><line x1="713.27" y1="50" x2="713.27" y2="650" stroke="rgb(221,221,221)" stroke-width="1.0" opacity="0.7" /><line x1="845.92" y1="50" x2="845.92" y2="650" stroke="rgb(221,221,221)" stroke-width="1.0" opacity="0.7" /><line x1="978.57" y1="50" x2="978.57" y2="650" stroke="rgb(221,221,221)" stroke-width="1.0" opacity="0.7" /><line x1="1111.22" y1="50" x2="1111.22" y2="650" stroke="rgb(221,221,221)" stroke-width="1.0" opacity="0.7" /><line x1="1243.88" y1="50" x2="1243.88" y2="650" stroke="rgb(221,221,221)" stroke-width="1.0" opacity="0.7" /><path d="M 50,350 L 76.530612244898,350.15968030459 L 103.0612244898,273.26979892296 L 129.59183673469,264.2429031926 L 156.12244897959,281.91726909206 L 182.65306122449,219.02348182305 L 209.18367346939,232.15530968393 L 235.71428571429,225.74603240138 L 262.24489795918,206.05116763502 L 288.77551020408,203.13828429462 L 315.30612244898,252.88430878092 L 341.83673469388,270.98043154165 L 368.36734693878,286.94441833386 L 394.89795918367,306.13983538142 L 421.42857142857,297.80142198129 L 447.95918367347,351.06559903282 L 474.48979591837,327.00489721131 L 501.02040816327,398.66493224322 L 527.55102040816,433.10245319538 L 554.08163265306,429.42294691313 L 580.61224489796,434.81629943695 L 607.14285714286,442.58909268963 L 633.67346938776,434.19224886674 L 660.20408163265,481.24292043602 L 686.73469387755,463.5397530603 L 713.26530612245,495.07091295958 L 739.79591836735,468.01455868642 L 766.32653061224,448.73173850672 L 792.85714285714,425.75199654468 L 819.38775510204,399.75226152965 L 845.91836734694,371.52985978387 L 872.44897959184,377.9707283381 L 898.97959183673,348.01409541794 L 925.51020408163,312.61503637839 L 952.04081632653,272.70639786337 L 978.57142857143,247.16160815375 L 1005.1020408163,266.7598563381 L 1031.6326530612,248.1550285026 L 1058.1632653061,233.84963935622 L 1084.693877551,206.17479855505 L 1111.2244897959,201.27701040519 L 1137.7551020408,225.11233319843 L 1164.2857142857,241.44813102941 L 1190.8163265306,237.87234825511 L 1217.3469387755,267.80993685299 L 1243.8775510204,288.54578177099 L 1270.4081632653,335.25321030797 L 1296.9387755102,329.0269489456 L 1323.4693877551,340.91921374676 L 1350,387.97749551023" fill="none" stroke="rgb(231,76,60)" stroke-width="2" /><path d="M 50,225.02348182305 L 76.530612244898,226.15530968393 L 103.0612244898,219.74603240138 L 129.59183673469,200.05116763502 L 156.12244897959,221.13828429462 L 182.65306122449,234.88430878092 L 209.18367346939,258.98043154165 L 235.71428571429,274.94441833386 L 262.24489795918,294.13983538142 L 288.77551020408,303.80142198129 L 315.30612244898,321.06559903282 L 341.83673469388,369.00489721131 L 368.36734693878,404.66493224322 L 394.89795918367,373.10245319538 L 421.42857142857,399.42294691313 L 447.95918367347,428.81629943695 L 474.48979591837,466.58909268963 L 501.02040816327,470.19224886674 L 527.55102040816,499.24292043602 L 554.08163265306,439.5397530603 L 580.61224489796,459.07091295958 L 607.14285714286,438.01455868642 L 633.67346938776,448.73173850672 L 660.20408163265,443.75199654468 L 686.73469387755,405.75226152965 L 713.26530612245,377.52985978387 L 739.79591836735,335.9707283381 L 766.32653061224,336.01409541794 L 792.85714285714,288.61503637839 L 819.38775510204,296.70639786337 L 845.91836734694,241.16160815375 L 872.44897959184,242.7598563381 L 898.97959183673,254.1550285026 L 925.51020408163,227.84963935622 L 952.04081632653,260.17479855505 L 978.57142857143,261.27701040519 L 1005.1020408163,237.11233319843 L 1031.6326530612,235.44813102941 L 1058.1632653061,237.87234825511 L 1084.693877551,291.80993685299 L 1111.2244897959,312.54578177099 L 1137.7551020408,323.25321030797 L 1164.2857142857,323.0269489456 L 1190.8163265306,376.91921374676 L 1217.3469387755,381.97749551023 L 1243.8775510204,445.28253330672 L 1270.4081632653,451.98496251123 L 1296.9387755102,473.33917629028 L 1323.4693877551,430.73305059354 L 1350,473.71234760798" fill="none" stroke="rgb(52,152,219)" stroke-width="2" /><path d="M 50,210.88430878092 L 76.530612244898,264.98043154165 L 103.0612244898,274.94441833386 L 129.59183673469,258.13983538142 L 156.12244897959,285.80142198129 L 182.65306122449,303.06559903282 L 209.18367346939,369.00489721131 L 235.71428571429,380.66493224322 L 262.24489795918,391.10245319538 L 288.77551020408,441.42294691313 L 315.30612244898,410.81629943695 L 341.83673469388,448.58909268963 L 368.36734693878,494.19224886674 L 394.89795918367,487.24292043602 L 421.42857142857,469.5397530603 L 447.95918367347,447.07091295958 L 474.48979591837,432.01455868642 L 501.02040816327,454.73173850672 L 527.55102040816,455.75199654468 L 554.08163265306,381.75226152965 L 580.61224489796,407.52985978387 L 607.14285714286,335.9707283381 L 633.67346938776,366.01409541794 L 660.20408163265,330.61503637839 L 686.73469387755,314.70639786337 L 713.26530612245,289.16160815375 L 739.79591836735,236.7598563381 L 766.32653061224,230.1550285026 L 792.85714285714,245.84963935622 L 819.38775510204,212.17479855505 L 845.91836734694,225.27701040519 L 872.44897959184,225.11233319843 L 898.97959183673,253.44813102941 L 925.51020408163,279.87234825511 L 952.04081632653,285.80993685299 L 978.57142857143,288.54578177099 L 1005.1020408163,341.25321030797 L 1031.6326530612,365.0269489456 L 1058.1632653061,364.91921374676 L 1084.693877551,423.97749551023 L 1111.2244897959,427.28253330672 L 1137.7551020408,427.98496251123 L 1164.2857142857,443.33917629028 L 1190.8163265306,454.73305059354 L 1217.3469387755,473.71234760798 L 1243.8775510204,493.99882478608 L 1270.4081632653,449.50132749816 L 1296.9387755102,472.31942307976 L 1323.4693877551,478.73943139625 L 1350,463.22301017325" fill="none" stroke="rgb(46,204,113)" stroke-width="2" /><path d="M 50,345.06559903282 L 76.530612244898,363.00489721131 L 103.0612244898,374.66493224322 L 129.59183673469,427.10245319538 L 156.12244897959,441.42294691313 L 182.65306122449,440.81629943695 L 209.18367346939,472.58909268963 L 235.71428571429,464.19224886674 L 262.24489795918,457.24292043602 L 288.77551020408,457.5397530603 L 315.30612244898,453.07091295958 L 341.83673469388,426.01455868642 L 368.36734693878,424.73173850672 L 394.89795918367,449.75199654468 L 421.42857142857,375.75226152965 L 447.95918367347,359.52985978387 L 474.48979591837,389.9707283381 L 501.02040816327,342.01409541794 L 527.55102040816,288.61503637839 L 554.08163265306,314.70639786337 L 580.61224489796,259.16160815375 L 607.14285714286,260.7598563381 L 633.67346938776,230.1550285026 L 660.20408163265,257.84963935622 L 686.73469387755,242.17479855505 L 713.26530612245,255.27701040519 L 739.79591836735,255.11233319843 L 766.32653061224,271.44813102941 L 792.85714285714,285.87234825511 L 819.38775510204,255.80993685299 L 845.91836734694,306.54578177099 L 872.44897959184,311.25321030797 L 898.97959183673,341.0269489456 L 925.51020408163,382.91921374676 L 952.04081632653,381.97749551023 L 978.57142857143,427.28253330672 L 1005.1020408163,457.98496251123 L 1031.6326530612,473.33917629028 L 1058.1632653061,478.73305059354 L 1084.693877551,497.71234760798 L 1111.2244897959,463.99882478608 L 1137.7551020408,485.50132749816 L 1164.2857142857,442.31942307976 L 1190.8163265306,466.73943139625 L 1217.3469387755,439.22301017325 L 1243.8775510204,402.38875016005 L 1270.4081632653,404.98751386842 L 1296.9387755102,381.8725010538 L 1323.4693877551,339.96523433346 L 1350,298.21882098782" fill="none" stroke="rgb(243,156,18)" stroke-width="2" /><path d="M 50,464.81629943695 L 76.530612244898,448.58909268963 L 103.0612244898,458.19224886674 L 129.59183673469,481.24292043602 L 156.12244897959,463.5397530603 L 182.65306122449,495.07091295958 L 209.18367346939,474.01455868642 L 235.71428571429,436.73173850672 L 262.24489795918,443.75199654468 L 288.77551020408,387.75226152965 L 315.30612244898,389.52985978387 L 341.83673469388,383.9707283381 L 368.36734693878,318.01409541794 L 394.89795918367,288.61503637839 L 421.42857142857,290.70639786337 L 447.95918367347,241.16160815375 L 474.48979591837,266.7598563381 L 501.02040816327,272.1550285026 L 527.55102040816,215.84963935622 L 554.08163265306,230.17479855505 L 580.61224489796,225.27701040519 L 607.14285714286,267.11233319843 L 633.67346938776,223.44813102941 L 660.20408163265,255.87234825511 L 686.73469387755,255.80993685299 L 713.26530612245,330.54578177099 L 739.79591836735,323.25321030797 L 766.32653061224,365.0269489456 L 792.85714285714,340.91921374676 L 819.38775510204,387.97749551023 L 845.91836734694,427.28253330672 L 872.44897959184,415.98496251123 L 898.97959183673,479.33917629028 L 925.51020408163,472.73305059354 L 952.04081632653,485.71234760798 L 978.57142857143,463.99882478608 L 1005.1020408163,479.50132749816 L 1031.6326530612,490.31942307976 L 1058.1632653061,430.73943139625 L 1084.693877551,463.22301017325 L 1111.2244897959,402.38875016005 L 1137.7551020408,422.98751386842 L 1164.2857142857,369.8725010538 L 1190.8163265306,363.96523433346 L 1217.3469387755,328.21882098782 L 1243.8775510204,293.5799555808 L 1270.4081632653,278.95117823513 L 1296.9387755102,291.15489320571 L 1323.4693877551,258.90058221722 L 1350,218.75651966671" fill="none" stroke="rgb(155,89,182)" stroke-width="2" /><text x="700" y="25" font-size="18" font-weight="bold" fill="#333" text-anchor="middle">Complex Multi-Series Data Visualization</text><text x="700" y="690" font-size="14" fill="#666" text-anchor="middle">Time Period</text><text x="15" y="350" font-size="14" fill="#666" text-anchor="middle" transform="rotate(-90 15 350)">Value</text><rect x="1250.00" y="290.00" width="140" height="120" fill="rgb(255,255,255)" stroke="rgb(204,204,204)" stroke-width="1" /><rect x="1260.00" y="304.00" width="12" height="12" fill="rgb(231,76,60)" /><text x="1280.00" y="314.00" font-size="12" fill="rgb(51,51,51)" text-anchor="start">Series 1</text><rect x="1260.00" y="324.00" width="12" height="12" fill="rgb(52,152,219)" /><text x="1280.00" y="334.00" font-size="12" fill="rgb(51,51,51)" text-anchor="start">Series 2</text><rect x="1260.00" y="344.00" width="12" height="12" fill="rgb(46,204,113)" /><text x="1280.00" y="354.00" font-size="12" fill="rgb(51,51,51)" text-anchor="start">Series 3</text><rect x="1260.00" y="364.00" width="12" height="12" fill="rgb(243,156,18)" /><text x="1280.00" y="374.00" font-size="12" fill="rgb(51,51,51)" text-anchor="start">Series 4</text><rect x="1260.00" y="384.00" width="12" height="12" fill="rgb(155,89,182)" /><text x="1280.00" y="394.00" font-size="12" fill="rgb(51,51,51)" text-anchor="start">Series 5</text></svg>