<svg xmlns="http://www.w3.org/2000/svg" width="1000" height="600" viewBox="0 0 1000 600"><rect width="100%" height="100%" fill="rgb(255,255,255)" /><line x1="50" y1="50" x2="50" y2="550" stroke="rgb(51,51,51)" stroke-width="2" /><line x1="50" y1="550" x2="950" y2="550" stroke="rgb(51,51,51)" stroke-width="2" /><line x1="50" y1="466.67" x2="950" y2="466.67" stroke="rgb(224,224,224)" stroke-width="1.0" opacity="0.7" /><line x1="50" y1="383.33" x2="950" y2="383.33" stroke="rgb(224,224,224)" stroke-width="1.0" opacity="0.7" /><line x1="50" y1="300.00" x2="950" y2="300.00" stroke="rgb(224,224,224)" stroke-width="1.0" opacity="0.7" /><line x1="50" y1="216.67" x2="950" y2="216.67" stroke="rgb(224,224,224)" stroke-width="1.0" opacity="0.7" /><line x1="50" y1="133.33" x2="950" y2="133.33" stroke="rgb(224,224,224)" stroke-width="1.0" opacity="0.7" /><line x1="200.00" y1="50" x2="200.00" y2="550" stroke="rgb(224,224,224)" stroke-width="1.0" opacity="0.7" /><line x1="350.00" y1="50" x2="350.00" y2="550" stroke="rgb(224,224,224)" stroke-width="1.0" opacity="0.7" /><line x1="500.00" y1="50" x2="500.00" y2="550" stroke="rgb(224,224,224)" stroke-width="1.0" opacity="0.7" /><line x1="650.00" y1="50" x2="650.00" y2="550" stroke="rgb(224,224,224)" stroke-width="1.0" opacity="0.7" /><line x1="800.00" y1="50" x2="800.00" y2="550" stroke="rgb(224,224,224)" stroke-width="1.0" opacity="0.7" /><path d="M 50,250 L 200,183.33333333333 L 350,216.66666666667 L 500,133.33333333333 L 650,166.66666666667 L 800,200 L 950,233.33333333333" fill="none" stroke="rgb(255,107,107)" stroke-width="2" /><text x="500" y="25" font-size="18" font-weight="bold" fill="#333" text-anchor="middle">Weekly Temperature Trend</text><text x="500" y="590" font-size="14" fill="#666" text-anchor="middle">Day</text><text x="15" y="300" font-size="14" fill="#666" text-anchor="middle" transform="rotate(-90 15 300)">Temperature (°C)</text></svg>