<svg xmlns="http://www.w3.org/2000/svg" width="800" height="800" viewBox="0 0 800 800"><rect width="100%" height="100%" fill="rgb(250,250,250)" /><path d="M 400.00,400.00 L 400.00,120.00 A 280.00,280.00 0 0,1 534.89,645.37 Z" fill="rgb(0,102,204)" stroke="#fff" stroke-width="2" /><path d="M 400.00,400.00 L 534.89,645.37 A 280.00,280.00 0 0,1 133.70,486.52 Z" fill="rgb(0,102,204)" stroke="#fff" stroke-width="2" /><path d="M 400.00,400.00 L 133.70,486.52 A 280.00,280.00 0 0,1 173.48,235.42 Z" fill="rgb(0,102,204)" stroke="#fff" stroke-width="2" /><path d="M 400.00,400.00 L 173.48,235.42 A 280.00,280.00 0 0,1 280.78,146.65 Z" fill="rgb(0,102,204)" stroke="#fff" stroke-width="2" /><path d="M 400.00,400.00 L 280.78,146.65 A 280.00,280.00 0 0,1 400.00,120.00 Z" fill="rgb(0,102,204)" stroke="#fff" stroke-width="2" /><text x="400" y="25" font-size="18" font-weight="bold" fill="#333" text-anchor="middle">Browser Market Share 2024</text><rect x="650.00" y="340.00" width="140" height="120" fill="rgb(255,255,255)" stroke="rgb(204,204,204)" stroke-width="1" /><rect x="660.00" y="354.00" width="12" height="12" fill="rgb(0,102,204)" /><text x="680.00" y="364.00" font-size="12" fill="rgb(51,51,51)" text-anchor="start">Chrome</text><rect x="660.00" y="374.00" width="12" height="12" fill="rgb(0,102,204)" /><text x="680.00" y="384.00" font-size="12" fill="rgb(51,51,51)" text-anchor="start">Safari</text><rect x="660.00" y="394.00" width="12" height="12" fill="rgb(0,102,204)" /><text x="680.00" y="404.00" font-size="12" fill="rgb(51,51,51)" text-anchor="start">Edge</text><rect x="660.00" y="414.00" width="12" height="12" fill="rgb(0,102,204)" /><text x="680.00" y="424.00" font-size="12" fill="rgb(51,51,51)" text-anchor="start">Firefox</text><rect x="660.00" y="434.00" width="12" height="12" fill="rgb(0,102,204)" /><text x="680.00" y="444.00" font-size="12" fill="rgb(51,51,51)" text-anchor="start">Other</text></svg>